<?xml version="1.0" encoding="utf-8"?>
<!-- Svg Vector Icons : http://www.onlinewebfonts.com/icon -->
<!DOCTYPE svg PUBLIC "-//W3C//DTD SVG 1.1//EN" "http://www.w3.org/Graphics/SVG/1.1/DTD/svg11.dtd">
<svg version="1.1" xmlns="http://www.w3.org/2000/svg" xmlns:xlink="http://www.w3.org/1999/xlink" x="0px" y="0px" viewBox="0 0 1000 1000" enable-background="new 0 0 1000 1000" xml:space="preserve">
<metadata> Svg Vector Icons : http://www.onlinewebfonts.com/icon </metadata>
<g><g><path d="M912.1,32.4H88c-43.1,0-78,34.8-78,77.9v779.5c0,42.9,34.9,77.9,78,77.9h824.1c42.9,0,77.9-34.9,77.9-77.9V110.3C990,67.2,955,32.4,912.1,32.4z M286.9,890.2H144.7V425.1h142.2V890.2z M286.9,342.5l-142.2-32.7V221h142.2V342.5z M855.4,890.2H713.1V613.4c0-40.4-6.3-70.6-19-90.5C681.5,503,660.4,493,628.1,493c-36.7,0-63.2,10.9-79.6,32.7c-16.5,21.8-19.6,57.7-19.6,107.6v256.9H387.9V402.7h122.9v38.3l2.8,9.2c38.3-30.1,45.5-30.9,72.7-43.9c27.2-13,61.4-22,89.8-22c36,0,65.6,7.5,88.6,17.2c23.1,9.8,41.2,23.4,54.5,40.8c13.3,17.4,22.6,38.5,28,63.5c5.4,25,8.1,52.6,8.1,82.9L855.4,890.2L855.4,890.2L855.4,890.2z"/><g></g><g></g><g></g><g></g><g></g><g></g><g></g><g></g><g></g><g></g><g></g><g></g><g></g><g></g><g></g></g><g></g><g></g><g></g><g></g><g></g><g></g><g></g><g></g><g></g><g></g><g></g><g></g><g></g><g></g><g></g></g>
</svg>